<?xml version="1.0" encoding="UTF-8"?> <!-- Generator: Adobe Illustrator 23.0.3, SVG Export Plug-In . SVG Version: 6.00 Build 0) --> <svg xmlns="http://www.w3.org/2000/svg" xmlns:xlink="http://www.w3.org/1999/xlink" id="Слой_1" x="0px" y="0px" width="662.7px" height="350px" viewBox="0 0 662.7 350" style="enable-background:new 0 0 662.7 350;" xml:space="preserve"> <style type="text/css"> .st0{fill:#1C324F;} .st1{fill:#5CA1DE;} .st2{fill:#E5F2F5;} .st3{fill:#4F8BC0;} .st4{fill:#62ACDE;} .st5{fill:#36608D;} .st6{fill:#4275A9;} .st7{fill:#76D0FA;} .st8{fill:#223C68;} .st9{fill:none;stroke:#72C4ED;stroke-width:7.6539;stroke-linecap:round;stroke-miterlimit:10;} .st10{fill:#4B84CA;} .st11{fill:#4D87DB;} .st12{fill:#D2E3E6;} .st13{fill:#F2ECA0;} .st14{fill:#F8FCFF;} .st15{fill:none;stroke:#DBDB6F;stroke-width:0.8679;stroke-miterlimit:10;} .st16{fill:none;stroke:#DBDB6F;stroke-width:0.755;stroke-miterlimit:10;} .st17{fill:#589CE3;} </style> <g> <path class="st0" d="M510.6,334.2c-4.7,6.1-10.2,10.6-9,12.7c0,0,2.5,1.8,9.4,1.8c11.9,0,23.5-0.9,21.6-2.1 c-2.7-1.7-10.3-2.3-17.7-4.8c-1.8-0.6,4-4.1,2.4-4.7C514.1,335.9,511.5,334.9,510.6,334.2z"></path> <path class="st0" d="M632.8,346.5c0,0,1.6,2.2,7.5,2.2c10.3,0,20.9-1.4,19.3-2.4c-2.3-1.4-20.3-5.2-20.3-5.2l-4-5l-6.8,3.8 L632.8,346.5z"></path> <g> <path class="st1" d="M600.3,195.4c-7.4,0-12.9-1.5-13.4-1.6c-3.8-1-6.1-5-5.1-8.8c1-3.8,5-6.1,8.8-5.1c0.3,0.1,16.4,4.2,25.9-3.9 c6.3-5.4,8.7-15.7,7.1-30.4l-0.5-4.7l14.6-8.3c3.5-2,7.9-0.7,9.8,2.7c2,3.5,0.7,7.9-2.7,9.8l-6.4,3.6c1,17.4-3.2,30.2-12.6,38.2 C618,193.7,608.2,195.4,600.3,195.4z"></path> </g> <g> <path class="st2" d="M625.2,155.5c-0.3,10.5-3.1,18.1-8.3,22.6c-10.4,8.9-28.1,4.4-28.4,4.3c-4.2-1.1-8.5,1.3-9.7,5.6 c-1.1,4.2,1.3,8.6,5.5,9.7c0.5,0.1,6.6,3.2,14.7,2.9c30.6-1.1,49.1-27.5,49.5-42.9L625.2,155.5z"></path> </g> <g> <path class="st3" d="M583.1,118.8c-2.7-1.2-5.4-2.6-8.1-4c-25.4,14.5-57.8,33-58.5,33.6c0,0,16.1,25.7,17.2,26.7 c0.7,0.7,40.6-28,69.4-48.8C596.5,123.8,589.6,121.7,583.1,118.8z"></path> <path class="st4" d="M583.5,118.1c6.6,2.9,13.6,5.1,20.4,7.7c15.8-11.4,28.1-20.3,28.1-20.3l-27.1-7.6c0,0-13,7.4-29.1,16.5 C578.4,115.7,580.9,116.9,583.5,118.1z"></path> <polygon class="st5" points="536.9,84.4 552.8,127.5 584,138.9 544.5,66.9 "></polygon> <polygon class="st5" points="585.7,149.5 562.6,149.5 583.1,185.4 614.4,198.6 "></polygon> <path class="st6" d="M614.4,198.6l-18.4-31.3l-78.6,46.1L502,187l9.7-156.7L547,9.5L610.6,118l21.4-12.5l17.8,30.3l-21.4,12.5 l18.4,31.3L614.4,198.6z M543.1,77l-2,1.2l-5.4,83.7l42.5-24.9L543.1,77z"></path> <polygon class="st3" points="475.9,179.8 502,187 517.5,213.3 489.9,206.4 "></polygon> <polygon class="st4" points="475.9,179.8 502,187 511.7,30.2 487.7,24.5 "></polygon> <polygon class="st7" points="487.7,24.5 511.7,30.2 547,9.5 522.8,2.5 "></polygon> </g> <path class="st0" d="M540.3,242.3c0,0,3.8,41.4,3.8,55.9c0,0-30.2,23.5-37.5,35.8c3.2,2.4,9.4,5.6,13.5,5.5 c20.1-19.2,42.2-32.9,42.2-32.9s9.5-27.6,12.5-51L540.3,242.3z"></path> <path class="st2" d="M561.8,244.2c6.8,0,13.7-1.1,19.6-4.3c-2-8.3,2.2-32.7,7.5-45.7c0,0,4.1-9.1,1.2-11.9 c-10.7-10.3-19.9-9.5-22.7-9.6c-9.8,8.3-28.2,32.8-27.4,65.3C545,243.3,555.3,244.2,561.8,244.2z"></path> <path class="st8" d="M628.3,341c3.9-1.1,7.7-2.9,10.1-6.1c-11.6-18.9-54.4-88.3-56.7-93.7c-0.1-0.1-0.1-0.3-0.2-0.5 c-6.3,3.4-13.8,4.6-21,4.3c-6.3-0.2-15.5-1.1-20.6-5.8c0,0.3,0,0.7,0,1c0.9,18.1,61,78.5,84.6,101.6 C625.9,341.6,627.2,341.3,628.3,341z"></path> <g> <path class="st1" d="M504.3,225.4c-1.7,0-3.3-0.2-4.8-0.8c-3.2-1.1-7.4-3.7-9.4-10.4c-1.1-3.8,1-7.8,4.9-9c3.8-1.1,7.8,1,8.9,4.9 c0.1,0.4,0.3,0.7,0.3,0.9c0.8,0,3.6-0.2,10.6-4.3c6.2-3.6,13.5-9.1,20.6-14.3c12-8.9,23.3-17.2,32.7-20.2c3.8-1.2,7.8,0.9,9,4.7 c1.2,3.8-0.9,7.8-4.7,9c-7.1,2.2-17.9,10.3-28.4,18.1C528.7,215.4,515.1,225.4,504.3,225.4z"></path> </g> <g> <path class="st1" d="M517.8,220.1c-0.9-4.2-1.8-8.9-4.5-12.4c-5.8,3.2-8.3,3.4-9,3.4c-0.1-0.2-0.2-0.4-0.3-0.9 c-1.1-3.8-5.1-6-8.9-4.9c-3.8,1.1-6,5.1-4.9,9c2,6.7,6.2,9.4,9.4,10.4c1.5,0.5,3.1,0.8,4.8,0.8c4.2,0,8.8-1.5,13.8-4 C518,221,517.9,220.5,517.8,220.1z"></path> <path class="st2" d="M577.2,176.9c-1.2-3.8-5.2-5.9-9-4.7c-9.4,3-20.7,11.3-32.7,20.2c-7.1,5.2-14.4,10.7-20.6,14.3 c-0.3,0.2-0.5,0.3-0.8,0.5c2.7,3.6,7.4,21.1,7.4,21.5c7.6-4,44.3-31.9,52.2-40.3C576.4,185.5,578.4,180.7,577.2,176.9z"></path> </g> <path class="st9" d="M485.2,206.4"></path> <g> <path class="st1" d="M494.1,219.6c-0.4,0-0.9-0.1-1.2-0.4c-5.7-4-8.6-11.8-8.7-12.1c-0.4-1.1,0.1-2.3,1.2-2.7 c1.1-0.4,2.3,0.1,2.7,1.2l0,0c0,0.1,2.6,6.9,7.2,10.2c1,0.7,1.2,2,0.5,3C495.4,219.3,494.8,219.6,494.1,219.6z"></path> </g> <g> <path class="st1" d="M494.1,214.5c-0.7,0-1.3-0.3-1.7-0.9c-2.7-3.8-4.9-12.9-5.1-14c-0.3-1.1,0.4-2.3,1.6-2.5 c1.1-0.3,2.3,0.4,2.5,1.6c0.6,2.6,2.6,9.8,4.4,12.5c0.7,1,0.4,2.3-0.5,3C495,214.3,494.6,214.5,494.1,214.5z"></path> </g> <g> <path class="st1" d="M497.1,213.3c-0.8,0-1.6-0.5-2-1.3c-1.9-4.8-2.7-14.7-2.7-15.2c-0.1-1.2,0.8-2.2,2-2.3c1.2-0.1,2.2,0.8,2.3,2 c0.2,2.7,1,10.4,2.4,13.9c0.4,1.1-0.1,2.3-1.2,2.8C497.6,213.2,497.3,213.3,497.1,213.3z"></path> </g> <g> <path class="st1" d="M500.2,212.2c-0.9,0-1.8-0.6-2.1-1.6c-1.3-5.2-0.1-10.5-0.1-10.7c0.3-1.1,1.4-1.8,2.5-1.6 c1.1,0.3,1.8,1.4,1.6,2.5c0,0.1-1,4.5,0,8.6c0.3,1.1-0.4,2.3-1.5,2.6C500.6,212.2,500.4,212.2,500.2,212.2z"></path> </g> <g> <path class="st1" d="M585.4,188.4c-1,0-2-0.2-2.9-0.7c-3.4-1.6-4.8-5.6-3.2-9c1.7-3.5,4.7-7.2,5-7.6c2.4-2.9,6.7-3.2,9.5-0.8 c2.9,2.4,3.2,6.7,0.8,9.5l0,0c-0.8,1-2.5,3.2-3.1,4.6C590.4,187,587.9,188.4,585.4,188.4z"></path> </g> <g> <path class="st10" d="M586.4,185c0.8,0.9,1.6,1.7,2.5,2.5c1.1-0.7,2-1.6,2.6-2.9c0.7-1.5,2.3-3.6,3.1-4.6c2.4-2.9,2-7.1-0.8-9.5 c-2.9-2.4-7.1-2.1-9.5,0.8c-0.1,0.2-0.7,0.8-1.4,1.8C583,177.2,583.4,181.7,586.4,185z"></path> </g> <g> <path class="st1" d="M608.6,177.5c-2.7,6.5-10.2,9.7-16.7,7l0,0c-6.5-2.7-9.7-10.2-7-16.7l3.4-8.2c2.7-6.5,10.2-9.7,16.7-7l0,0 c6.5,2.7,9.7,10.2,7,16.7L608.6,177.5z"></path> </g> <path class="st8" d="M586.4,166.7c-1,4.4-7.4,3-9.7,0.7c-3.3-3.2-5.2-12.1,2-11.6c-5.2-7.9,12.5-16.4,14.4-7.3 c1.4-2.4,2.8-4.5,5.9-4.7c2.2-0.1,6.1,1.6,5.8,4.3c3.3-2.6,8.1-2.4,11.4,0.2c1,0.8,2.9,2.7,2,4.1c-0.5,0.8-3.2,1-4.1,1.3 c1.5-0.7,7.9,0.7,6.6,3.3c-0.6,1.2-3.7,0.1-4.6-0.1c0,0,0,0.3,0,0.3c3.4,1.8,4.8,3.7,4.4,7.9c-0.2,1.9-1.1,5.6-3.4,5.9 c-1.2,0.1-2.5-0.6-2.5-1.8c2.8,2.8-1.2,10.3-4.7,6.6c-1.4-1.5-0.7-3.9,0.6-5.2c-2.1-1.2-6.7-7.6-3.4-9.3c-1.5,0-8.5-2.3-6.3-4.4 c0.6,2.3-2.3,5.4-4.6,4.2c1.4,3.1-2.8,5.5-5.4,5.6c1.6,2-3.3,4.4-4.8,1.5L586.4,166.7z"></path> </g> <g> <path class="st11" d="M345.6,141.2c0,0-4.1-15.7,16.3-19.5l-1.6,18.9L345.6,141.2z"></path> <g> <path class="st12" d="M263.9,180.9c-4.5,0-8.6-0.9-12.4-2.7c-18.5-8.8-20.6-35.1-20.7-36.2c-0.3-4,2.7-7.4,6.7-7.7 c4-0.3,7.4,2.7,7.7,6.7c0.4,5.3,3.4,20,12.5,24.2c7.5,3.5,19.1-0.1,33.6-10.3c3.2-2.3,7.7-1.5,10,1.7c2.3,3.2,1.5,7.7-1.7,10 C286.1,176.1,274.1,180.9,263.9,180.9z"></path> </g> <g> <g> <path class="st4" d="M302.2,194.4c2-5.3,3.9-10.6,6-15.8c-1.5-0.1-2.9-0.3-4.4-0.6c-7-1.3-12.9-4.2-17.7-8.5 c-4.8-4.3-8.6-9.9-11.2-16.5c-2.6-6.7-4.2-14.2-4.6-22.7c-0.4-8.5,0.3-17.5,2.1-26.9c1.8-9.6,4.5-18.3,8-25.9 c3.5-7.6,7.7-14.1,12.6-19.3c4.9-5.2,10.4-9,16.5-11.2c6.1-2.3,12.7-2.7,19.6-1.4c5.5,1.1,10.4,3.1,14.6,6.2 c2-4.1,4.2-8.1,6.3-12.1c2.5-4.7,4.8-9.5,7-14.4c0.9-2.1,1.7-4.2,2.6-6.3c-7.1-4-15-6.9-23.8-8.6c-12.5-2.4-24.2-1.9-35.2,1.4 c-11,3.3-20.9,8.8-29.7,16.5c-8.8,7.7-16.3,17.4-22.4,29c-6.1,11.6-10.6,24.6-13.3,39c-2.7,14.4-3.4,28.1-2,41.2 c1.4,13.1,4.8,24.8,10.1,35.2c5.3,10.4,12.5,19.2,21.5,26.3c8.4,6.6,18.3,11.2,29.7,13.7C297.2,206.6,299.8,200.6,302.2,194.4z"></path> <path class="st5" d="M399.7,86.2c-1.4-13.1-4.8-24.8-10.1-35.3C384.2,40.5,377,31.8,368,24.6c-2.4-1.9-5-3.6-7.7-5.2 c-0.8,2.1-1.7,4.2-2.6,6.3c-2.2,4.8-4.5,9.7-7,14.4c-2.1,4-4.3,8-6.4,12.1c0.7,0.6,1.4,1.1,2.1,1.8c4.8,4.4,8.6,9.9,11.4,16.6 c2.7,6.7,4.3,14.2,4.8,22.6c0.4,8.4-0.2,17.4-2.1,27c-1.8,9.4-4.5,18-8,25.8c-3.5,7.7-7.8,14.2-12.8,19.4 c-5,5.2-10.6,8.9-16.7,11.2c-4.5,1.7-9.2,2.4-14.1,2.1c-2.4,5.7-4.4,11.5-6.6,17.3c-2.2,5.7-4.6,11.3-7.1,16.8 c0.6,0.1,1.1,0.2,1.7,0.3c12.5,2.4,24.2,1.9,35.2-1.4c11-3.3,20.9-8.8,29.7-16.5c8.8-7.7,16.3-17.4,22.4-29 c6.1-11.6,10.6-24.6,13.3-39C400.5,113,401.1,99.3,399.7,86.2z"></path> </g> <g> <path class="st6" d="M319.1,220.7c-12.5-2.4-23.2-7.1-32.2-14.2c-9-7.1-16.2-15.9-21.5-26.3c-5.4-10.4-8.7-22.2-10.1-35.3 c-1.4-13.1-0.7-26.8,2-41.2c2.7-14.3,7.2-27.3,13.3-39c6.1-11.6,13.6-21.3,22.4-29c8.8-7.7,18.7-13.2,29.7-16.5 c11-3.3,22.7-3.7,35.2-1.3C370.3,20.3,381,25,390,32.1c9,7.1,16.2,15.9,21.5,26.3c5.4,10.4,8.7,22.2,10.1,35.3 c1.4,13.1,0.7,26.8-2,41.2c-2.7,14.3-7.2,27.3-13.3,39c-6.1,11.6-13.6,21.3-22.4,29c-8.8,7.7-18.7,13.2-29.7,16.5 C343.3,222.6,331.5,223,319.1,220.7z M325.8,185.5c6.8,1.3,13.2,0.8,19.4-1.4c6.1-2.3,11.7-6,16.7-11.2c5-5.2,9.3-11.7,12.8-19.4 c3.5-7.7,6.2-16.3,8-25.8c1.8-9.6,2.5-18.6,2.1-27c-0.4-8.4-2-15.9-4.8-22.6c-2.7-6.7-6.5-12.2-11.4-16.6 c-4.8-4.3-10.7-7.2-17.5-8.5c-7-1.3-13.5-0.9-19.6,1.4c-6.1,2.3-11.6,6-16.5,11.2c-4.9,5.2-9.1,11.7-12.6,19.3 c-3.5,7.6-6.2,16.3-8,25.9c-1.8,9.4-2.5,18.4-2.1,26.9c0.4,8.5,2,16.1,4.6,22.7c2.6,6.7,6.4,12.2,11.2,16.5 C312.9,181.4,318.8,184.2,325.8,185.5z"></path> </g> </g> <g> <path class="st8" d="M446.1,114.9l0.5,26.5c0,0-7.6,6.8-14.3,0l2.5-29.8L446.1,114.9z"></path> <path class="st0" d="M414.9,326.1c-0.4-0.3-3.4-1.7-3.8-2.1c-1.6,2.4-2.7,3.7-4.6,5.7c4.7,4.1,3.5,9,3.5,9s-3.3,2.8-4.6,3.5 c-4.1,2-11.7,4.8-11.7,4.8l19.1,1.5L427,334C422,331.2,418.1,328.6,414.9,326.1z"></path> <path class="st0" d="M340,327.1c-3-0.5-6.9,1.8-9.4,0c-0.6,5.3-0.5,8.2-0.5,8.2L301.8,347H338c0.3-3.9-0.4-7.5,0.2-11.1 C338.4,334.1,339.7,328.9,340,327.1z"></path> <path class="st12" d="M372.9,198.7l-32,60.8c0,0,13,11,25.7,14.6l24-71.6L372.9,198.7z"></path> <path class="st0" d="M408,331.2c1.9-2,3.5-4.3,5.1-6.7c-8.3-7.1-12.3-14.4-23.6-27c-4.7-5.2,7.7-35,10.7-40 c5.4-9,6.2-15.5,10.4-30.9l-31.2,11.7c-7.4,26.6-16.1,53.3-7.4,66c9.2,13.4,25.5,24.3,33.3,29.7C405.5,334.2,407.7,331,408,331.2z "></path> <g> <path class="st1" d="M355.4,138c-0.4,0-0.9-0.1-1.2-0.4c-1-0.7-1.2-2-0.5-3c2.5-3.5,3.1-6.4,3.1-6.4c0.2-1.1,1.3-1.9,2.5-1.7 c1.1,0.2,1.9,1.3,1.7,2.4c0,0.2-0.7,3.8-3.8,8.2C356.7,137.7,356,138,355.4,138z"></path> </g> <path class="st13" d="M408.3,233.1c9.3-25.5,17.2-65.6,20.2-81.6c-1.7-0.7-3.3-1.2-4.6-1.6c-2.8-0.8-6.1-1.7-8.9-0.8 c-1.4,0.4-2.7,1.2-4,2c-1.2,3.5-1.6,6.4-1.6,6.4s-20,38.2-33,64.2C387.5,224.3,398.3,227.9,408.3,233.1z"></path> <path class="st8" d="M376.1,222.6C376.1,222.6,376.1,222.6,376.1,222.6c-1.2,2.3-2.3,4.5-3.3,6.6c0,0,0,0,0,0 c-2.6,4.5-5.3,8.7-8,12.8c-25.7,38.7-35.4,69.6-37.1,84.2c2.5,1.9,11.7,3,14.8,3.5c4.7-24.2,17.1-39.7,39.2-58 c7.4-6.1,12.9-13.9,17.8-20.3c2.9-3.8,5.8-10,8.5-17.5C398,228.7,387.2,225,376.1,222.6z"></path> <g> <path class="st1" d="M351.2,233.2c-3,0-5.8-1.9-6.8-4.8c-1.3-3.8,0.7-7.9,4.4-9.2c8.7-3,22.1-15,31.2-27.8 c18.3-26,31.2-40.4,31.7-41c2.7-3,7.2-3.2,10.2-0.6c3,2.7,3.2,7.2,0.6,10.2l0,0c-0.1,0.1-12.9,14.5-30.7,39.7 c-8.9,12.6-24.7,28.4-38.2,33.1C352.7,233.1,351.9,233.2,351.2,233.2z"></path> </g> <g> <path class="st1" d="M423.5,153.9c-0.2,0-0.3,0-0.5,0c-3.7-0.3-6.5-3.5-6.3-7.3c0.3-3.9,1.8-8.4,2-8.9c1.2-3.5,5.1-5.4,8.6-4.2 c3.5,1.2,5.4,5.1,4.2,8.6c-0.4,1.2-1.1,3.8-1.3,5.4C430,151.2,427,153.9,423.5,153.9z"></path> </g> <g> <path class="st10" d="M425.5,146.8c1.2,1.4,2.5,2.6,3.9,3.7c0.5-0.9,0.8-1.8,0.9-2.9c0.1-1.6,0.8-4.2,1.3-5.4 c1.2-3.5-0.7-7.4-4.2-8.6c-2.9-1-6.1,0.1-7.8,2.5C420.1,140,423.3,144.3,425.5,146.8z"></path> </g> <g> <path class="st1" d="M442.9,132.1c-0.2,7.1-6,12.7-13.1,12.5l0,0c-7.1-0.2-12.7-6-12.5-13.1l0.2-8.9c0.2-7.1,6-12.7,13.1-12.5 l0,0c7.1,0.2,12.7,6,12.5,13.1L442.9,132.1z"></path> </g> <g> <path class="st1" d="M341,231.2c-3,0-6.3-0.8-10.1-2.4c-1.1-0.5-1.6-1.7-1.1-2.8c0.5-1.1,1.7-1.6,2.8-1.1c5.6,2.3,10,2.7,12.8,1 c1-0.6,2.3-0.3,2.9,0.7c0.6,1,0.3,2.3-0.7,2.9C345.7,230.7,343.5,231.2,341,231.2z"></path> </g> <g> <path class="st1" d="M343.5,234.3c-3.4,0-6.1-0.7-9.2-1.4l-1-0.2c-1.1-0.3-1.8-1.4-1.6-2.6c0.3-1.1,1.4-1.8,2.6-1.6l1,0.2 c5.1,1.2,8.5,2.1,16,0.1c1.1-0.3,2.3,0.4,2.6,1.5c0.3,1.1-0.4,2.3-1.5,2.6C348.9,234,346,234.3,343.5,234.3z"></path> </g> <g> <path class="st1" d="M340.8,227.1c-6.6,0-11.2-4.1-11.4-4.3c-0.9-0.8-0.9-2.1-0.1-3c0.8-0.9,2.1-0.9,3-0.1 c0.2,0.2,5.1,4.5,11.6,2.8c1.1-0.3,2.3,0.4,2.6,1.5c0.3,1.1-0.4,2.3-1.5,2.6C343.5,226.9,342.1,227.1,340.8,227.1z"></path> </g> <g> <path class="st1" d="M345.3,224.8c-0.1,0-0.2,0-0.2,0c-7.2-0.8-10.1-6-10.3-6.3c-0.6-1-0.2-2.3,0.8-2.9c1-0.6,2.3-0.2,2.9,0.8 c0.1,0.2,2.1,3.5,7.1,4.1c1.2,0.1,2,1.2,1.9,2.3C347.3,224,346.3,224.8,345.3,224.8z"></path> </g> <g> <path class="st1" d="M370.6,141.1c-0.1,0-0.2,0-0.3,0c-3.5-0.6-13.1-2.1-15.3-2.1c-1.2,0-2.1-0.9-2.1-2.1c0-1.2,0.9-2.1,2.1-2.1 c3,0,14.7,1.9,16,2.1c1.2,0.2,1.9,1.3,1.7,2.4C372.5,140.4,371.6,141.1,370.6,141.1z"></path> </g> <g> <path class="st1" d="M369.2,145.5c-0.2,0-0.4,0-0.6-0.1c-0.1,0-10.2-2.8-14.9-3c-1.2-0.1-2.1-1.1-2-2.2c0.1-1.2,1.1-2.1,2.2-2 c5.1,0.3,15.3,3.1,15.7,3.2c1.1,0.3,1.8,1.5,1.5,2.6C371,144.9,370.2,145.5,369.2,145.5z"></path> </g> <g> <path class="st1" d="M368.2,150.2c-0.2,0-0.4,0-0.7-0.1c-9.5-3.1-11.9-3.3-13.1-3.4c-0.5,0-1.1-0.1-1.8-0.3 c-1.1-0.3-1.8-1.5-1.5-2.6c0.3-1.1,1.5-1.8,2.6-1.5c0.3,0.1,0.6,0.1,1,0.1c1.5,0.1,4.1,0.3,14.1,3.6c1.1,0.4,1.7,1.6,1.4,2.7 C369.9,149.6,369.1,150.2,368.2,150.2z"></path> </g> <g> <path class="st1" d="M364,153.6c0,0-0.1,0-0.2,0c-9.6-0.7-9.9-5.9-10-6.5l4.2-0.1c0,0,0,0,0-0.1c0,0,0.4,2.1,6,2.5 c1.2,0.1,2,1.1,2,2.3C366.1,152.7,365.1,153.6,364,153.6z"></path> </g> <path class="st1" d="M356,151.1c0,0-1.8-0.8-4.7-0.8c-2.4,0-5.7-4.1-5.7-8.3c0,0-1.2-12.5,12-6.8L356,151.1z"></path> <path class="st12" d="M397.6,188.2l-18.5,91.1c0,0,28.7,6.9,46.2-3.2l4.4-126.6C429.8,149.5,410.1,142.6,397.6,188.2z"></path> <path class="st2" d="M401.9,238.4l17.7-1c0,0,0.4,27.1-10.2,26.1C409.4,263.5,395,266.6,401.9,238.4z"></path> <path class="st2" d="M424.1,147.4c-1.9-1.7-4.5-2.7-7.1-2.7c-3,0-5.9,1.3-7.9,3.5c-0.5,0.6-13.5,15.1-32,41.3 c-1.2,1.7-2.5,3.5-4,5.2l-1.9,2.3l2.1,2.2c2.2,2.3,4.5,4.6,6.7,6.7c1.2,1.2,2.4,2.4,3.6,3.6l2.6,2.6l2.4-2.8 c2.1-2.5,4.1-5.1,5.8-7.5c17.7-25.1,30.3-39.2,30.5-39.4C428.9,158,428.5,151.3,424.1,147.4z"></path> <rect x="375.9" y="188.7" transform="matrix(0.6683 -0.7439 0.7439 0.6683 -23.2251 350.3427)" class="st14" width="10.7" height="25.1"></rect> <path class="st8" d="M404.4,137.2l16.3,6.4c0,0,6.9-33.7,1.9-38.7C422.6,104.9,404.4,103.1,404.4,137.2z"></path> <path class="st8" d="M423.5,110.7c0.6,0.9,13.2,9.3,23.1,7c0,0-1.7-14.9-24.9-12.7L423.5,110.7z"></path> <path class="st15" d="M433.3,126.6c0,3.9-3.2,7.1-7.1,7.1s-7.1-3.2-7.1-7.1c0-3.9,3.2-7.1,7.1-7.1S433.3,122.7,433.3,126.6z"></path> <path class="st16" d="M449.3,128c0,3.4-2.8,6.2-6.2,6.2c-3.4,0-6.2-2.8-6.2-6.2c0-3.4,2.8-6.2,6.2-6.2 C446.5,121.8,449.3,124.6,449.3,128z"></path> <path class="st15" d="M433.3,126.6c0,0,2.4-0.9,3.8,0.5"></path> </g> <g> <g> <path class="st10" d="M227.3,139c-0.2,0-0.3,0-0.5,0c-3.7-0.3-6.5-3.5-6.3-7.3c0.3-3.9,1.8-8.4,2-8.9c1.2-3.5,5.1-5.4,8.6-4.2 c3.5,1.2,5.4,5.1,4.2,8.6c-0.4,1.2-1.1,3.8-1.3,5.4C233.8,136.3,230.8,139,227.3,139z"></path> </g> <g> <path class="st0" d="M223.2,327.1c11.2,5.2,20.4,5.1,21.2,5.2c7.3-13,29.4-48.3,9.3-77.2l-28.4-15.2 C225.4,239.8,253.7,269.4,223.2,327.1z"></path> <path class="st0" d="M237.9,338.6c0,0,2.6-5.3,4.7-8.9c-1.5-0.2-8.4-0.5-11.2-1.6c-2.6,5.4-8.4,13.3-12.5,18.8H257L237.9,338.6z"></path> <path class="st8" d="M285.1,256.7c-4.7-9.2-39.2-36.9-42.3-52.8c-0.3-1.4-0.5-2.9-0.7-4.3c-5.5,2.9-12.7,3.7-18.4,4 c-6.5,0.3-10.3,0.7-16.6-2.3c0.5,9.9-1.1,19.4,4.7,29.4c11.4,19.9,49.4,36.9,53.7,43.4c8.4,12.9,11.2,41,14.1,58.2 c4.5,0,15.1-0.2,19.4-1.7C297.6,321.7,299.9,285.6,285.1,256.7z"></path> <path class="st0" d="M297,337.1c0,0-1.2-5-1.6-7.4c-4.4,1.5-6.9,0-11.4,0c0.7,4.3,0.2,12.2,0.6,16.9h36.1L297,337.1z"></path> <path class="st12" d="M223.9,208.8c5.5-0.3,17.1-1.8,21.7-6.4c-1-7.6-4.3-19.7-3.1-29.5c4-33.2-12.2-43.1-12.2-43.1 s-7.5-5.2-13.5,1c-9.1,9.4-18,35.9-17.1,75.2C206,209.1,217.3,209.1,223.9,208.8z"></path> </g> <g> <path class="st1" d="M307,219.2c-0.5,0-1.1-0.1-1.6-0.2c-26.1-6.1-48.2-21.7-63.9-45.2c-11.8-17.6-15.8-33.5-16-34.1 c-1-3.9,1.4-7.8,5.2-8.7c3.9-1,7.8,1.4,8.7,5.2c0.1,0.3,3.8,14.5,14.3,30.1c13.8,20.5,32.3,33.5,54.9,38.8 c3.9,0.9,6.3,4.8,5.4,8.6C313.2,217,310.3,219.2,307,219.2z"></path> </g> <path class="st2" d="M291.1,197.6c-14.4-6.8-26.6-17.6-36.4-32.1c-10.3-15.3-14.1-29.5-14.1-29.7c-1-3.8-4.3-6.4-8.2-6.4 c-0.7,0-1.4,0.1-2.1,0.3c-2.2,0.6-4,1.9-5.2,3.9c-1.2,1.9-1.5,4.2-0.9,6.4l0,0.2c1.1,4.8,5.6,21.9,16.2,37.7 c12.7,19,29.9,33.2,49.7,41.1c0.2,0.1,0.3,0.1,0.5,0.1c0.2,0,0.5-0.1,0.7-0.2c0.3-0.2,0.6-0.6,0.6-1.1v-19.1 C291.9,198.3,291.6,197.8,291.1,197.6z"></path> <g> <path class="st1" d="M312.4,219.8c-2.3,0-4.8-0.3-7.3-0.8c-1.1-0.2-1.9-1.3-1.7-2.5c0.2-1.1,1.3-1.9,2.5-1.7 c6.3,1.3,11.6,0.8,15.6-1.4c1-0.6,2.3-0.2,2.9,0.9c0.5,1,0.2,2.3-0.9,2.9C320.3,218.9,316.6,219.8,312.4,219.8z"></path> </g> <g> <path class="st1" d="M312.7,215c-1,0-2-0.1-3.1-0.2c-1.2-0.2-2-1.2-1.8-2.4c0.2-1.2,1.2-2,2.4-1.8c6.8,1,13-2.5,13.1-2.6 c1-0.6,2.3-0.2,2.9,0.8c0.6,1,0.2,2.3-0.8,2.9C325.1,211.9,319.6,215,312.7,215z"></path> </g> <g> <path class="st1" d="M310.8,210.8c-0.3,0-0.7,0-1,0c-1.2-0.1-2.1-1.1-2-2.2c0.1-1.2,1.1-2.1,2.2-2c5,0.3,7.6-2.7,7.7-2.8 c0.7-0.9,2.1-1,3-0.3c0.9,0.7,1,2.1,0.3,3C320.8,206.7,317.4,210.8,310.8,210.8z"></path> </g> <g> <path class="st1" d="M303.5,207.3c-1.2,0-2.1-0.9-2.1-2.1c0-1.2,0.9-2.1,2.1-2.1c0.2,0,4.4-0.1,6.8-3.5c0.7-1,2-1.2,2.9-0.5 c1,0.7,1.2,2,0.5,2.9C310,207.2,303.7,207.3,303.5,207.3z"></path> </g> <g> <path class="st1" d="M296.5,159.5c-0.7,0-1.3-0.3-1.7-0.9c-3.1-4.4-3.8-8-3.8-8.2c-0.2-1.2,0.6-2.2,1.7-2.4 c1.1-0.2,2.2,0.6,2.4,1.7c0,0,0.6,2.9,3.1,6.4c0.7,1,0.5,2.3-0.5,3C297.4,159.3,297,159.5,296.5,159.5z"></path> </g> <g> <path class="st1" d="M297,160.4c-0.1,0-0.3,0-0.4,0c-4.6-0.9-13.8-0.9-13.9-0.9c-1.2,0-2.1-0.9-2.1-2.1s0.9-2.1,2.1-2.1 c0.4,0,9.7,0,14.7,1c1.1,0.2,1.9,1.3,1.7,2.5C298.9,159.7,298,160.4,297,160.4z"></path> </g> <g> <path class="st1" d="M281.5,164.8c-1.1,0-2-0.8-2.1-1.9c-0.1-1.2,0.7-2.2,1.8-2.4c1.3-0.2,13.2-1.6,17.1-0.9 c1.2,0.2,1.9,1.3,1.7,2.5c-0.2,1.2-1.3,1.9-2.5,1.7c-2.4-0.4-11,0.4-15.8,1C281.7,164.8,281.6,164.8,281.5,164.8z"></path> </g> <g> <path class="st1" d="M284.2,169.6c-1,0-1.9-0.7-2.1-1.7c-0.2-1.2,0.5-2.3,1.7-2.5c5.1-1,6.5-1.4,9-2.2c1.2-0.4,2.6-0.8,4.8-1.5 c1.1-0.3,2.3,0.3,2.6,1.4c0.3,1.1-0.3,2.3-1.4,2.6c-2.1,0.6-3.5,1-4.7,1.4c-2.6,0.8-4.1,1.3-9.5,2.4 C284.5,169.6,284.4,169.6,284.2,169.6z"></path> </g> <g> <path class="st1" d="M288.8,173c-1,0-1.9-0.7-2.1-1.8c-0.2-1.2,0.6-2.2,1.7-2.4c6.9-1.2,8.2-3.7,8.2-3.8c0.4-1.1,1.6-1.7,2.7-1.3 c1.1,0.4,1.7,1.6,1.3,2.7c-0.3,0.8-2.1,5-11.5,6.6C289,173,288.9,173,288.8,173z"></path> </g> <path class="st1" d="M297,170.4l-1.6-17.3c0,0,7.6,0.6,7.6,8.5C302.9,164.3,302.1,167.2,297,170.4z"></path> <g> <path class="st1" d="M249.3,114.2c1.9,7.2-2.4,14.6-9.6,16.5l0,0c-7.2,1.9-14.6-2.4-16.6-9.6l-2.4-9.1 c-1.9-7.2,2.4-14.6,9.6-16.5l0,0c7.2-1.9,14.6,2.4,16.6,9.6L249.3,114.2z"></path> </g> <g> <path class="st8" d="M248,109.4c-1,2.9-2.5,5.7-4.7,7.6c-5.4,4.7-13.8,6-20.4,3.2l0.2,0.9c1.9,7.2,9.3,11.5,16.6,9.6 c7.2-1.9,11.5-9.3,9.6-16.5L248,109.4z"></path> </g> <path class="st8" d="M223.1,120.6c-5.1-3.3-10.6-15.7-2.5-18.4c5-1.7,3,13.6,3,18L223.1,120.6z"></path> <path class="st8" d="M219,103.2c-6.1-4.5,1.5-17,16.7-17c9.4,0,9.3,7.2,2.8,11.1c-5.4,3.2-13.7,1.3-17.8,6.8L219,103.2z"></path> <path class="st8" d="M248,112.2c-2.2-3.3-6.4-9.9-8-13.6c-1-2.4-2.5-6.4,2.3-3.5c4,2.4,6.1,10.8,5.7,15.1L248,112.2z"></path> </g> </g> <g> <g> <path class="st5" d="M140.7,142.3c-2.3,2.2-4.9,4.2-7,6.6l-30.6,63.9l22.8-29.4l24.2-50C147,136.4,143.9,139.4,140.7,142.3z"></path> <path class="st5" d="M122.6,131.8c2.2-3,4.4-6.6,6.9-9.7L76,95.9L25.2,101l89,41C117.1,138.7,120,135.4,122.6,131.8z"></path> <path class="st4" d="M130.2,122.4c-2.8,3.6-5.2,7.7-7.9,11.1c-2.5,3-4.9,6-7.4,8.9l40.4,18.6l14.7-19.2L130.2,122.4z"></path> <path class="st6" d="M69.3,196.5L85,163.8L2.9,124.4l13.2-27.6l135.3-79.7l36.9,17.7L134,148.2l22.4,10.7l-15.2,31.7L118.8,180 l-15.7,32.8L69.3,196.5z M130.2,69.4l-2.1-1l-72.4,42.4l44.5,21.3L130.2,69.4z"></path> <polygon class="st5" points="156.4,159 170.1,141.9 159.3,165.7 140.7,191.7 "></polygon> <path class="st5" d="M151.1,132.4l53.4-117l-16.2,19.4L134,148.2C135.5,146.8,150.3,133.3,151.1,132.4z"></path> <polygon class="st17" points="16.1,96.9 40.2,75.9 172.4,0 151.4,17.2 "></polygon> <polygon class="st7" points="151.4,17.2 188.3,34.9 204.5,15.5 172.4,0 "></polygon> </g> <path class="st1" d="M106.1,102.6c-4.5-3.2-7.7-1.8-9.9-1.5c-2.4,0.4-4.2-0.9-4.2-0.9c-1-0.6-2.3-0.4-2.9,0.6 c-0.6,1-0.4,2.3,0.6,2.9c0.1,0.1,1.9,1.2,5.2,2.1c-3.5,3.2-7.1,7.1-7.3,7.3c-0.8,0.9-0.7,2.2,0.1,3c0.4,0.4,0.9,0.6,1.4,0.6 c0.6,0,1.1-0.2,1.6-0.7c0,0,2.5-2.7,5.3-5.4c-2.6,3.2-5,6.6-5.5,7.2c-0.7,1-0.5,2.3,0.5,3c0.4,0.3,0.8,0.4,1.2,0.4 c0.7,0,1.3-0.3,1.7-0.9c1.4-1.9,3.3-4.5,5.2-6.9c-0.7,1.4-1.6,2.9-3.3,5.8c-0.6,1-0.3,2.3,0.7,2.9c0.3,0.2,0.7,0.3,1.1,0.3 c0.7,0,1.4-0.4,1.8-1c0.7-1.2,1.3-2.1,1.8-3c-0.4,0.9-0.1,2,0.8,2.6c0.4,0.2,0.8,0.3,1.2,0.3c0.7,0,1.4-0.3,1.8-1 c2-3.1,2.9-5.5,3.4-7.5l0.1,0.1C109.6,107,108.2,104.2,106.1,102.6z M101.8,117.5c0.7-1.2,1.2-2.2,1.6-3.1 C103.1,115.3,102.5,116.4,101.8,117.5z"></path> <path class="st8" d="M41.2,126.6c-6.7-0.4-16.4,12.7-6.5,16.3c-9-0.2-11.2,12.5-3,16c-14.5-2.8-12.8,15.9-5.9,22.7 c-4.6-0.7-9.3,3.7-8.6,8.5c0.7,4.9,2.6,11.6,14.7,15.2c12,3.6,19.4-3.1,25.4-9.5c3.8,7.8,22.8-2.7,20.7-12.1 c7.1,2.5,13.5-5.6,13.7-12.1c0.1-6.3-4.3-11.1-8.5-15.3c3-2.7,3.5-7.8,2.7-11.6c-1.3-6.4-9.3-7-9.3-12.1c0-1.8,0.3-7.3-1.2-9.7 c-2.4-3.9-6.6-7.7-11.9-5.8C41.2,106.7,41.2,126.6,41.2,126.6z"></path> <path class="st0" d="M54.1,332.3C48,331.2,47,331.5,41,330l-14,17.1h54.2l-31.5-8.5L54.1,332.3z"></path> <path class="st0" d="M155.1,337.2l-3.2-4.2c-2.9,1.9-5.9,3.5-9.2,4.6l8.6,9.6H183L155.1,337.2z"></path> <path class="st0" d="M35.3,332.3c6.1,1.5,12.1,3,18.3,4.1l44.8-55.1l-7.6-21.9l-31.3-36.1l9,51.2L35.3,332.3z"></path> <path class="st8" d="M96.2,208.1c-12.3-3.3-28.9,0.9-40.9,5.4c0,0,7.3,29.2,12.1,37.9C81.4,276.7,142,340,142,340 c3.3-1.1,9.7-5.8,12.7-7.7L96.2,208.1z"></path> <path class="st12" d="M53.6,224.9c11.9-4.5,35.7-12,47.9-8.9c0,0-16.2-38-23.5-46.4c-5-5.7-32-21.6-32-0.8 C46,197.4,53.6,224.9,53.6,224.9z"></path> <g> <path class="st1" d="M64.2,167.1c-0.2,0.1-0.3,0.1-0.5,0.2c-3.6,1-7.3-1.2-8.3-4.8c-1-3.8-1.1-8.5-1.1-9c0-3.7,3-6.8,6.7-6.8 c3.7,0,6.8,3,6.8,6.7c0,1.3,0.2,4,0.6,5.6C69.4,162.4,67.5,165.9,64.2,167.1z"></path> </g> <g> <path class="st10" d="M68.7,160.4c0-0.5-0.1-1-0.2-1.5c-0.4-1.6-0.6-4.2-0.6-5.6c0-3.7-3.1-6.8-6.8-6.7c-3.7,0-6.8,3.1-6.7,6.8 c0,0.1,0,0.3,0,0.6C57.7,157.8,63.2,159.6,68.7,160.4z"></path> </g> <g> <path class="st1" d="M75.3,140.1c2.2,6.7-1.5,14-8.2,16.1l0,0c-6.7,2.2-14-1.5-16.1-8.2l-2.7-8.5c-2.2-6.7,1.5-14,8.2-16.1l0,0 c6.7-2.2,14,1.5,16.1,8.2L75.3,140.1z"></path> </g> <path class="st1" d="M150.8,133.3c-0.3-0.2-0.6-0.4-0.9-0.4c0.3-0.3,0.6-0.7,1-1.1c0.8-0.9,0.7-2.2-0.1-3c-0.1-0.1-0.2-0.2-0.3-0.3 c0.6-0.8,0.5-2-0.3-2.7c-0.6-0.6-1.4-0.7-2.2-0.4c1-1,1.6-1.7,1.6-1.7c0.8-0.9,0.7-2.2-0.2-3c-0.9-0.8-2.2-0.7-3,0.2 c0,0.1-4.7,5.2-9.4,7.9c-2.1-3.1-4.8-4.2-5-4.3c-1.1-0.4-2.3,0.1-2.7,1.2c-0.4,1.1,0.1,2.3,1.2,2.7c0.1,0,1.7,0.7,3,2.7 c-0.2,0.5-0.4,1.2-0.5,2c-31.2,42.2-72.5,27.2-74.4,26.5c-3.7-1.4-7.9,0.4-9.3,4.1c-1.4,3.7,0.4,7.9,4.1,9.3c0.5,0.2,10.6,4,25.1,4 c2.9,0,6-0.2,9.2-0.5c15.6-1.8,38.6-10.8,57-34.5c0.3-0.2,0.7-0.4,1.3-0.8c0.4-0.2,0.8-0.5,1.2-0.8l0,0c1.1-0.9,2.4-2.2,4-4 C151.8,135.4,151.7,134,150.8,133.3z"></path> <path class="st2" d="M93.4,159.6l-1.8,0.4c-4.3,0.9-8.7,1.4-13.2,1.4c-10.9,0-18.5-2.8-19.3-3.1c-1-0.4-2-0.6-3-0.6 c-3.5,0-6.6,2.1-7.9,5.4c-0.8,2.1-1,4.5,0.1,6.5C52.5,177,63.9,180,78.6,180c3.1,0,6.3-0.2,9.3-0.5c1.9-0.2,3.8-0.5,5.8-1l1.2-0.3 c0,0-1.8-5.3-2.1-10.8C92.7,165.3,93.4,159.6,93.4,159.6z"></path> <path class="st8" d="M47.9,146.3c4.4-2.8,6-8.1,5.5-13.4c3.9,2.6,7,1,9.4-3.5c7.4,10.4,18.7-5.1,3.3-10.6 c-12.3-4.5-24.3,7.7-21.2,19.9L47.9,146.3z"></path> </g> </svg> 