<svg xmlns="http://www.w3.org/2000/svg" width="24" height="24" fill="none"><g fill="#fff" clip-path="url(#a)"><path d="M15.034 3H2.966A.967.967 0 0 0 2 3.966v8.068a.967.967 0 0 0 .966.966h2.045L5 17l4-4h6.034a.967.967 0 0 0 .966-.966V3.966A.967.967 0 0 0 15.034 3Z"/><path d="M22 8.966v8.068a.966.966 0 0 1-.966.966h-2.045L19 21l-4-3h-4.034a.966.966 0 0 1-.966-.966V14.5h5.5a2.006 2.006 0 0 0 2-2V8h3.534a.966.966 0 0 1 .966.966Z"/></g><defs><clipPath id="a"><path fill="#fff" d="M0 0h24v24H0z"/></clipPath></defs></svg>