<svg width="16" height="16" viewBox="0 0 16 16" fill="none" xmlns="http://www.w3.org/2000/svg">
<g clip-path="url(#clip0_6170_23312)">
<path d="M6.558 1.83379C7.41993 1.83379 8.26251 2.08938 8.97918 2.56824C9.69585 3.04711 10.2544 3.72773 10.5843 4.52405C10.9141 5.32037 11.0004 6.19662 10.8323 7.04199C10.6641 7.88736 10.2491 8.66388 9.63957 9.27336C9.0301 9.88284 8.25358 10.2979 7.40821 10.4661C6.56284 10.6342 5.68659 10.5479 4.89027 10.2181C4.09395 9.88821 3.41332 9.32963 2.93446 8.61296C2.45559 7.89629 2.2 7.05372 2.2 6.19179C2.20133 5.03638 2.6609 3.92868 3.47789 3.11168C4.29489 2.29468 5.4026 1.83511 6.558 1.83379ZM6.558 0.633789C5.45873 0.633789 4.38415 0.95976 3.47014 1.57048C2.55613 2.1812 1.84375 3.04924 1.42308 4.06483C1.00241 5.08043 0.892341 6.19795 1.1068 7.2761C1.32125 8.35425 1.8506 9.34459 2.6279 10.1219C3.4052 10.8992 4.39554 11.4285 5.47369 11.643C6.55184 11.8575 7.66937 11.7474 8.68496 11.3267C9.70055 10.906 10.5686 10.1937 11.1793 9.27965C11.79 8.36564 12.116 7.29106 12.116 6.19179C12.1161 5.46187 11.9725 4.73907 11.6932 4.06468C11.4139 3.39029 11.0045 2.77753 10.4884 2.2614C9.97226 1.74526 9.3595 1.33587 8.68511 1.0566C8.01073 0.77733 7.28793 0.633658 6.558 0.633789Z" fill="#B8B9BC"/>
<path d="M9.92223 9.9015L9.91303 9.9107C9.67872 10.145 9.67872 10.5249 9.91303 10.7592L13.6119 14.4581C13.8462 14.6924 14.2261 14.6924 14.4604 14.4581L14.4696 14.4489C14.7039 14.2146 14.7039 13.8347 14.4696 13.6004L10.7708 9.9015C10.5364 9.66719 10.1565 9.66719 9.92223 9.9015Z" fill="#B8B9BC"/>
</g>
<defs>
<clipPath id="clip0_6170_23312">
<rect width="16" height="16" fill="white"/>
</clipPath>
</defs>
</svg>
